<svg height="512" viewBox="0 0 64 64" width="512" xmlns="http://www.w3.org/2000/svg"><g id="flat"><path d="m24.682 39.087s-3.682 2.913-10.682 2.913l4 3s-4 1-7-1c0 0 2.893 11 13.893 1z" fill="#eaeadc"/><path d="m41 24s8 0 15-18a4.281 4.281 0 0 1 1.827 5.907l-2.827 5.093 5-3c.611 2.446.937 4.386-1 6l-4 3h6a4 4 0 0 1 -4 4h-3l5 5a4.239 4.239 0 0 1 -6 0l-2-2 2 7-.932.233a3.415 3.415 0 0 1 -4.068-2.233l-1-3-1 7a4.323 4.323 0 0 1 -4-3l-1.3-4.835-1.7-3.132z" fill="#995f5b"/><path d="m23.143 24s-8.143 0-15.143-18a4.281 4.281 0 0 0 -1.827 5.907l2.827 5.093-5-3c-.611 2.446-.937 4.386 1 6l4 3h-6a4 4 0 0 0 4 4h3l-5 5a4.239 4.239 0 0 0 6 0l2-2-2 7 .932.233a3.415 3.415 0 0 0 4.068-2.233l1-3 1 7a4.323 4.323 0 0 0 4-3l1.4-4.913.519-3.587z" fill="#995f5b"/><path d="m28.168 18.415-5.168 1.585 1 28h4l4-7 4 7h4l1-24-3.667-5z" fill="#66342e"/><path d="m41 5 6 2v6l-3-3-3-1z" fill="#f9bb4b"/><path d="m41 5-7-2h-4l-7 17 3 4 3-1 2 4 2-3 3 2 2-3 3 1v-4l-2-8 2-2z" fill="#eaeadc"/><path d="m14 53h36v6h-36z" fill="#ad6327"/><path d="m27 51 1-3h-4l-1 3-3 1v3l1 6h2l1-6h2l1 6h2l1-6v-3z" fill="#f9bb4b"/><path d="m37 51-1-3h4l1 3 3 1v3l-1 6h-2l-1-6h-2l-1 6h-2l-1-6v-3z" fill="#f9bb4b"/><path d="m35 5.438h2v4.123h-2z" fill="#394d5c" transform="matrix(.243 -.97 .97 .243 19.993 40.606)"/><g fill="#301a12"><path d="m35 34a1 1 0 0 1 -.555-.168l-2.445-1.632-2.445 1.63a1 1 0 0 1 -1.262-.125l-2-2 1.414-1.414 1.42 1.42 2.318-1.545a1 1 0 0 1 1.11 0l2.318 1.545 1.42-1.42 1.414 1.414-2 2a1 1 0 0 1 -.707.295z"/><rect height="2" rx="1" transform="matrix(.832 -.555 .555 .832 -8.44 10.125)" width="3.606" x="10.697" y="18"/><rect height="2" rx="1" transform="matrix(.6 -.8 .8 .6 -11.8 20.395)" width="5" x="12" y="21"/><rect height="2" rx="1" transform="matrix(.555 -.832 .832 .555 -14.063 25.723)" width="7.211" x="13.394" y="25"/><rect height="2.001" rx="1" transform="matrix(.275 -.962 .962 .275 -11.937 39.174)" width="7.28" x="16.36" y="26.5"/><rect height="3.606" rx="1" transform="matrix(.555 -.832 .832 .555 7.124 51.311)" width="2" x="50.5" y="17.197"/><rect height="5" rx="1" transform="matrix(.8 -.6 .6 .8 -3.3 34.1)" width="2" x="48.5" y="19.5"/><rect height="7.211" rx="1" transform="matrix(.832 -.555 .555 .832 -6.529 30.438)" width="2" x="46" y="22.394"/><rect height="7.28" rx="1" transform="matrix(.962 -.275 .275 .962 -5.862 13.146)" width="2.001" x="43" y="23.86"/></g></g></svg>